# xmcd CD database file
#
# Track frame offsets:
#	150
#	16253
#	35170
#	55048
#	72070
#	85627
#	104004
#	125301
#	144801
#	164153
#	186923
#	202727
#	219440
#	239543
#	256760
#	271862
#	290019
#	303686
#	321772
#
# Disc length: 4563 seconds
#
# Revision: 0
# Processed by: cddbd v1.5.2PL0 Copyright (c) Steve Scherf et al.
# Submitted via: CDex 1.70beta2
#
DISCID=1211d113
DTITLE=Patricia Kaas - 19
DYEAR=2009
DGENRE=Blues
TTITLE0=Mademoiselle chante le blues (Live)
TTITLE1=D'Allemagne (Live)
TTITLE2=Mon mec a moi (Live)
TTITLE3=Les Hommes Qui Passent (Album Version)
TTITLE4=Une Derniere Semaine a New-York (Album Version)
TTITLE5=Entrer Dans La Lumiere (Album Version)
TTITLE6=Il Me Dit Que Je Suis Belle (Version Single Inedite)
TTITLE7=Quand J'Ai Peur De Tout (Album Version)
TTITLE8=Je Voudrais La Connaitre (Album Version)
TTITLE9=Ma Liberte Contre La Tienne (Album Version)
TTITLE10=Une Fille De L'Est (Album Version)
TTITLE11=Unter Der Haut (Les Eternelles) (Album Version)
TTITLE12=If You Go Away (Album Version)
TTITLE13=Ou Sont Les Hommes (Album Version)
TTITLE14=Je Le Garde Pour Toi (Album Version)
TTITLE15=Herz eines Kämpfers (Pop Version)
TTITLE16=Et s'il fallait le faire (Single Version)
TTITLE17=Kabaret
TTITLE18=Une derniere fois
EXTD=YEAR: 2009
EXTT0=
EXTT1=
EXTT2=
EXTT3=
EXTT4=
EXTT5=
EXTT6=
EXTT7=
EXTT8=
EXTT9=
EXTT10=
EXTT11=
EXTT12=
EXTT13=
EXTT14=
EXTT15=
EXTT16=
EXTT17=
EXTT18=
PLAYORDER=
